<svg xmlns="http://www.w3.org/2000/svg" style="display:none"><symbol id="plus" viewBox="0 0 24 24">
  <path d="M5 12h14" />
  <path d="M12 5v14" />
</symbol><symbol id="search" viewBox="0 0 24 24">
  <path d="m21 21-4.34-4.34" />
  <circle cx="11" cy="11" r="8" />
</symbol><symbol id="settings-2" viewBox="0 0 24 24">
  <path d="M14 17H5" />
  <path d="M19 7h-9" />
  <circle cx="17" cy="17" r="3" />
  <circle cx="7" cy="7" r="3" />
</symbol><symbol id="chevron-down" viewBox="0 0 24 24">
  <path d="m6 9 6 6 6-6" />
</symbol><symbol id="chevron-right" viewBox="0 0 24 24">
  <path d="m9 18 6-6-6-6" />
</symbol><symbol id="arrow-right" viewBox="0 0 24 24">
  <path d="M5 12h14" />
  <path d="m12 5 7 7-7 7" />
</symbol><symbol id="copy" viewBox="0 0 24 24">
  <rect width="14" height="14" x="8" y="8" rx="2" ry="2" />
  <path d="M4 16c-1.1 0-2-.9-2-2V4c0-1.1.9-2 2-2h10c1.1 0 2 .9 2 2" />
</symbol><symbol id="check" viewBox="0 0 24 24">
  <path d="M20 6 9 17l-5-5" />
</symbol><symbol id="x" viewBox="0 0 24 24">
  <path d="M18 6 6 18" />
  <path d="m6 6 12 12" />
</symbol><symbol id="square" viewBox="0 0 24 24">
  <rect width="18" height="18" x="3" y="3" rx="2" />
</symbol><symbol id="sun" viewBox="0 0 24 24">
  <circle cx="12" cy="12" r="4" />
  <path d="M12 2v2" />
  <path d="M12 20v2" />
  <path d="m4.93 4.93 1.41 1.41" />
  <path d="m17.66 17.66 1.41 1.41" />
  <path d="M2 12h2" />
  <path d="M20 12h2" />
  <path d="m6.34 17.66-1.41 1.41" />
  <path d="m19.07 4.93-1.41 1.41" />
</symbol><symbol id="moon" viewBox="0 0 24 24">
  <path d="M20.985 12.486a9 9 0 1 1-9.473-9.472c.405-.022.617.46.402.803a6 6 0 0 0 8.268 8.268c.344-.215.825-.004.803.401" />
</symbol><symbol id="terminal" viewBox="0 0 24 24">
  <path d="M12 19h8" />
  <path d="m4 17 6-6-6-6" />
</symbol><symbol id="file-diff" viewBox="0 0 24 24">
  <path d="M6 22a2 2 0 0 1-2-2V4a2 2 0 0 1 2-2h8a2.4 2.4 0 0 1 1.704.706l3.588 3.588A2.4 2.4 0 0 1 20 8v12a2 2 0 0 1-2 2z" />
  <path d="M9 10h6" />
  <path d="M12 13V7" />
  <path d="M9 17h6" />
</symbol><symbol id="list-filter" viewBox="0 0 24 24">
  <path d="M2 5h20" />
  <path d="M6 12h12" />
  <path d="M9 19h6" />
</symbol><symbol id="clock-3" viewBox="0 0 24 24">
  <circle cx="12" cy="12" r="10" />
  <path d="M12 6v6h4" />
</symbol><symbol id="rotate-ccw" viewBox="0 0 24 24">
  <path d="M3 12a9 9 0 1 0 9-9 9.75 9.75 0 0 0-6.74 2.74L3 8" />
  <path d="M3 3v5h5" />
</symbol><symbol id="scroll-text" viewBox="0 0 24 24">
  <path d="M15 12h-5" />
  <path d="M15 8h-5" />
  <path d="M19 17V5a2 2 0 0 0-2-2H4" />
  <path d="M8 21h12a2 2 0 0 0 2-2v-1a1 1 0 0 0-1-1H11a1 1 0 0 0-1 1v1a2 2 0 1 1-4 0V5a2 2 0 1 0-4 0v2a1 1 0 0 0 1 1h3" />
</symbol><symbol id="shield-check" viewBox="0 0 24 24">
  <path d="M20 13c0 5-3.5 7.5-7.66 8.95a1 1 0 0 1-.67-.01C7.5 20.5 4 18 4 13V6a1 1 0 0 1 1-1c2 0 4.5-1.2 6.24-2.72a1.17 1.17 0 0 1 1.52 0C14.51 3.81 17 5 19 5a1 1 0 0 1 1 1z" />
  <path d="m9 12 2 2 4-4" />
</symbol><symbol id="panel-left-close" viewBox="0 0 24 24">
  <rect width="18" height="18" x="3" y="3" rx="2" />
  <path d="M9 3v18" />
  <path d="m16 15-3-3 3-3" />
</symbol><symbol id="panel-left-open" viewBox="0 0 24 24">
  <rect width="18" height="18" x="3" y="3" rx="2" />
  <path d="M9 3v18" />
  <path d="m14 9 3 3-3 3" />
</symbol><symbol id="menu" viewBox="0 0 24 24">
  <path d="M4 5h16" />
  <path d="M4 12h16" />
  <path d="M4 19h16" />
</symbol><symbol id="external-link" viewBox="0 0 24 24">
  <path d="M15 3h6v6" />
  <path d="M10 14 21 3" />
  <path d="M18 13v6a2 2 0 0 1-2 2H5a2 2 0 0 1-2-2V8a2 2 0 0 1 2-2h6" />
</symbol><symbol id="check-check" viewBox="0 0 24 24">
  <path d="M18 6 7 17l-5-5" />
  <path d="m22 10-7.5 7.5L13 16" />
</symbol><symbol id="file-text" viewBox="0 0 24 24">
  <path d="M6 22a2 2 0 0 1-2-2V4a2 2 0 0 1 2-2h8a2.4 2.4 0 0 1 1.704.706l3.588 3.588A2.4 2.4 0 0 1 20 8v12a2 2 0 0 1-2 2z" />
  <path d="M14 2v5a1 1 0 0 0 1 1h5" />
  <path d="M10 9H8" />
  <path d="M16 13H8" />
  <path d="M16 17H8" />
</symbol><symbol id="play" viewBox="0 0 24 24">
  <path d="M5 5a2 2 0 0 1 3.008-1.728l11.997 6.998a2 2 0 0 1 .003 3.458l-12 7A2 2 0 0 1 5 19z" />
</symbol><symbol id="pause" viewBox="0 0 24 24">
  <rect x="14" y="3" width="5" height="18" rx="1" />
  <rect x="5" y="3" width="5" height="18" rx="1" />
</symbol><symbol id="download" viewBox="0 0 24 24">
  <path d="M12 15V3" />
  <path d="M21 15v4a2 2 0 0 1-2 2H5a2 2 0 0 1-2-2v-4" />
  <path d="m7 10 5 5 5-5" />
</symbol></svg>